/* XPM */
static char *charizard1704132043[] = {
/* columns rows colors chars-per-pixel */
"50 50 131 2 ",
"   c #310A0E",
".  c #6E0D0D",
"X  c #720F10",
"o  c #6F1111",
"O  c #65151D",
"+  c #6C161F",
"@  c #721313",
"#  c #7A1215",
"$  c #721919",
"%  c #7B3232",
"&  c #7F3D3D",
"*  c #84161C",
"=  c #851C26",
"-  c #8D1A21",
";  c #941C25",
":  c #911E29",
">  c #9C1F2A",
",  c #A31F2B",
"<  c #87262A",
"1  c #8F252C",
"2  c #9D202B",
"3  c #9A2A33",
"4  c #803F3F",
"5  c #A3222E",
"6  c #A32631",
"7  c #A32A35",
"8  c #A32E39",
"9  c #A93135",
"0  c #AB3B37",
"q  c #A3323D",
"w  c #AC373A",
"e  c #AD3D3B",
"r  c #AF443D",
"t  c #B04B3D",
"y  c #A33540",
"u  c #A33B44",
"i  c #A33F48",
"p  c #B03F41",
"a  c #814243",
"s  c #834748",
"d  c #8C4649",
"f  c #9D444A",
"g  c #855050",
"h  c #8A5455",
"j  c #A3444D",
"k  c #B75B46",
"l  c #B05C4E",
"z  c #A34B54",
"x  c #AF5153",
"c  c #A3535B",
"v  c #A6595E",
"b  c #BD5A54",
"n  c #BB654D",
"m  c #A35B62",
"M  c #8C6464",
"N  c #9C6E71",
"B  c #957B7B",
"V  c #A46266",
"C  c #A3656B",
"Z  c #A4696E",
"A  c #BE6E65",
"S  c #A36C72",
"D  c #A37175",
"F  c #AB7975",
"G  c #A3767A",
"H  c #A37A7D",
"J  c #C17055",
"K  c #C3735D",
"L  c #C6785D",
"P  c #CC7A69",
"I  c #FF8A26",
"U  c #F58D34",
"Y  c #F18E3A",
"T  c #DE9354",
"R  c #D7945D",
"E  c #D8945C",
"W  c #EC8F40",
"Q  c #E19250",
"!  c #CD8368",
"~  c #D08D6C",
"^  c #CE9769",
"/  c #D2926F",
"(  c #D58D75",
")  c #C49A76",
"_  c #C99970",
"`  c #D59175",
"'  c #D89D78",
"]  c #A37D81",
"[  c #978181",
"{  c #998686",
"}  c #9A8A8A",
"|  c #949494",
" . c #9E9191",
".. c #A38285",
"X. c #A38789",
"o. c #A38B8D",
"O. c #BA9D84",
"+. c #B59E8A",
"@. c #A38E90",
"#. c #A39395",
"$. c #A59896",
"%. c #A39798",
"&. c #A39C9D",
"*. c #A99B99",
"=. c #A5A19F",
"-. c #A9A29B",
";. c #BFAE9F",
":. c #A39FA0",
">. c #A3A3A3",
",. c #A9A7A4",
"<. c #ACAAA4",
"1. c #BCB4A6",
"2. c #D3BB9E",
"3. c #E2AE87",
"4. c #E4B38B",
"5. c #E8BC90",
"6. c #C2B9A7",
"7. c #CABEA7",
"8. c #ECC396",
"9. c #EEC59B",
"0. c #EFC99E",
"q. c #F1CE9E",
"w. c #D6C7A9",
"e. c #D9C9A9",
"r. c #EBD5AB",
"t. c #EFD8AB",
"y. c #F5D4A3",
"u. c #F7D8A7",
"i. c #F4DCAD",
"p. c #F8DCAB",
"a. c #FBE1AD",
/* pixels */
">.>.>.>.>.>.>.>.>.>.>.>.>.>.>.>.>.>.>.>.>.>.:.>.>.>.>.>.>.>.>.>.>.>.>.>.>.>.>.>.>.>.>.>.>.>.>.>.>.>.",
">.>.>.>.>.>.>.>.>.>.>.>.>.>.>.>.>.>.>.>.>.>.>.>.>.>.>.>.>.>.>.>.>.>.>.>.>.>.>.>.>.>.>.>.>.>.>.>.>.>.",
">.>.>.>.>.>.>.>.>.>.>.>.>.>.>.>.>.>.>.>.>.>.>.>.>.>.>.>.>.>.>.>.>.>.>.>.>.>.>.>.>.>.>.>.>.>.>.>.>.>.",
">.>.>.>.>.>.>.>.>.>.>.>.>.>.>.>.>.>.>.:.>.>.>.>.>.>.>.>.>.>.>.>.>.:.>.>.>.>.>.>.>.>.>.>.>.>.>.>.>.>.",
">.>.>.>.>.>.>.>.>.>.>.>.>.>.>.>.>.>.>.>.>.>.>.>.>.>.>.>.>.>.>.>.>.>.>.>.>.>.>.>.>.>.>.>.>.>.>.>.>.:.",
">.>.>.>.>.>.>.>.>.:.>.>.>.>.>.>.>.>.>.>.>.>.>.>.>.>.>.>.>.>.>.>.>.>.>.>.>.>.>.>.>.>.>.>.>.>.>.>.>.>.",
">.>.>.>.>.>.>.>.>.>.>.>.>.>.>.>.>.>.>.>.>.>.>.>.>.>.>.>.:.>.>.>.>.>.>.>.>.>.>.>.>.>.>.>.>.>.>.>.>.>.",
">.>.>.>.>.>.>.>.>.>.>.>.>.>.>.>.>.>.>.>.>.>.>.>.>.>.>.>.>.>.>.>.>.>.>.>.>.>.>.>.>.:.>.>.>.>.>.>.>.>.",
">.>.>.>.>.>.>.>.>.>.>.>.>.:.:.>.>.>.>.>.>.>.>.>.>.>.>.>.>.>.>.>.>.>.>.>.>.>.>.>.>.:.>.>.>.>.>.>.>.>.",
">.>.>.>.>.>.>.>.=.>.>.>.>.>.>.>.>.>.>.>.>.>.>.>.>.>.>.>.>.>.>.>.>.>.>.>.>.:.>.>.>.>.>.>.>.>.>.>.>.>.",
">.>.>.>.>.>.>.>.>.>.>.>.>.>.>.>.>.>.>.>.>.>.>.>.>.>.>.>.>.>.>.>.>.>.>.>.>.>.>.>.>.>.>.>.>.>.>.>.>.>.",
">.>.>.>.>.>.>.>.>.>.>.>.>.>.>.>.>.>.>.>.>.>.>.>.>.>.>.>.>.>.>.>.>.>.>.>.>.>.>.>.>.>.>.>.>.>.>.>.>.>.",
">.>.>.>.>.>.>.>.>.>.>.:.>.>.>.>.>.>.>.>.>.>.>.>.>.>.>.>.>.>.>.>.>.>.>.>.>.>.>.>.>.>.>.>.>.>.>.>.>.>.",
":.>.>.>.>.>.>.>.>.>.>.>.>.>.>.>.>.>.>.>.>.>.>.>.>.>.>.>.:.>.>.>.#.] @.:.X.X.:.>.>.>.>.>.>.>.>.>.>.>.",
">.>.>.>.>.>.>.>.>.>.>.>.>.>.>.>.>.>.>.=.%.S m D >.>.>.>.>.>.>.>.S 7 m @.y u @.>.>.>.>.>.>.>.>.>.>.>.",
">.>.>.>.>.>.>.>.>.>.>.>.>.>.>.>.>.>.>.{ f 6 5 j &.} [ [  .#.o.} m 5 z D 8 y #.>.>.>.>.>.>.>.>.>.>.>.",
">.>.>.>.>.>.>.>.>.>.>.>.>.>.>.>.>.>...c 6 5 i S  .& $ $ h z 7 8 6 6 6 7 5 8 m @.>.>.>.>.>.>.>.>.>.>.",
">.>.>.>.>.>.>.>.>.>.>.>.>.>.>.>.>.#.c 5 , 6 C } 4 $ . X d j , 5 5 5 5 5 5 5 6 j @.>.>.>.>.>.>.>.>.>.",
">.>.>.>.>.>.>.>.>.>.>.>.>.>.>.#.S u 6 5 6 , z h o . X ; 6 6 5 5 5 5 5 5 5 5 5 5 j o.>.>.>.>.>.>.>.>.",
">.>.>.>.>.>.>.>.>.>.>.>.>.&.Z j 6 5 5 5 , 6 2 # . . X ; 6 5 5 5 5 5 5 5 > : 5 5 5 z @.>.>.>.>.>.>.>.",
">.>.>.>.>.>.>.>.>.>.>.>.&.Z 7 5 5 5 5 5 5 5 > # . . X ; 5 , 5 5 5 5 5 5 +   : 5 5 5 m :.:.:.>.>.>.>.",
">.>.>.>.>.>.>.>.>.>.>.&.S 7 5 5 5 5 5 5 , 6 5 - @ * - , 5 6 b ( K 9 5 5 = O > 5 5 5 y ] :.>.>.>.>.>.",
">.>.>.>.>.>.>.>.>.>.>.H 7 5 5 5 5 5 5 5 5 , 6 ; X > 6 , 6 b 9.a.y.! 9 , 5 5 5 5 5 5 5 u #.>.>.>.>.>.",
">.>.>.>.>.>.>.>.>.>.&.c 5 5 5 5 5 5 5 5 5 6 , > - > 5 5 w 4.a.p.i.2.F m 8 , 5 6 5 5 5 y @.>.>.>.>.>.",
">.>.>.>.>.:.>.>.>.>...q 5 5 5 5 5 5 5 5 5 5 5 5 5 5 5 5 r 5.a.t.1.,.>.>.S y 2 5 5 , 7 Z :.>.>.>.>.>.",
">.>.>.>.>.>.>.>.>.&.c 5 5 5 5 5 5 6 5 5 5 5 5 5 5 5 5 , r 5.a.w.>.>.>.>.:.#.V m m v S &.>.>.>.>.>.>.",
">.>.>.>.>.>.>.>.>...q 5 5 5 5 5 5 5 5 5 5 5 5 5 5 5 5 5 j 5.a.6.:.>.>.>.>.>.>.>.+.E O.=.>.>.>.>.>.>.",
">.>.>.>.>.>.>.>.>.D 5 5 5 5 5 5 5 5 5 5 , 5 5 5 5 5 5 5 r 5.a.r.1.>.>.>.>.>.>.>.-.^ Y ) >.>.>.>.>.>.",
">.>.>.>.>.>.>.>.%.z 5 5 5 5 5 5 5 , - = < 1 5 5 5 5 5 5 r 5.a.a.w.,.>.>.>.>.>.>.>.*.U W _ ,.>.>.>.>.",
">.>.>.>.>.>.>.>.o.q 5 5 5 5 5 ; ; ; # % { N 6 5 5 5 5 5 r 5.a.a.i.1.>.>.>.>.>.>.>.-.E U W O.-.>.>.>.",
">.>.>.>.>.>.>.>.Z 6 5 5 5 5 2 # . o $ a $.m 6 5 5 5 5 5 r 3.u.a.p.;. .:.>.>.>.>.>.>.-.T I Q *.>.>.>.",
">.>.>.>.>.>.>.&.z 5 5 8 3 ; - @ . % ] { v 6 5 5 5 5 5 5 6 e ` a.p.A j ..>.>.>.>.>.>.,.R U Q -.>.>.>.",
">.>.>.>.>.>.>.X.u , , z a X @ @ + a =.] 7 5 5 5 5 5 5 5 5 5 P a.u.k 6 H ,.>.>.>.>.>.>.O.O.+.:.>.>.>.",
":.>.>.>.>.>.,.S 5 8 i m a . g ] B } %.z 5 5 6 5 5 5 5 5 r ` 9.a.u.6.] $.>.>.>.>.>.>.>.>.>.>.>.>.>.>.",
">.>.:.>.>.>.>.S , z #.%.s o & B ,.,.] 8 5 5 5 5 5 5 5 0 L q.a.a.a.6.>.>.>.>.>.>.>.>.>.>.>.>.>.>.>.>.",
">.>.>.>.>.>.>.B y y m #.} g . & | &.c 5 5 5 5 5 5 5 0 K 8.a.a.a.a.e.,.>.>.>.>.>.>.>.>.>.>.>.>.>.>.>.",
">.>.>.>.>.>.>.:.] 8 y $.>.{ s M >.] 8 , 5 5 5 5 5 7 k 4.a.a.a.a.a.t.1.>.>.>.>.>.>.>.>.>.>.>.>.>.>.>.",
">.>.>.>.>.>.>.>.&.H H | >.>.:.:.&.c 6 5 5 5 5 5 5 9 n 8.a.a.a.a.a.a.w.>.>.>.>.>.>.>.>.>.>.>.>.>.>.>.",
">.>.>.>.>.>.>.>.>.>.>.>.>.>.>.>...8 5 5 5 5 5 5 6 t / u.a.a.a.a.a.p.e.>.>.>.>.>.>.>.>.>.>.>.>.>.>.>.",
">.>.>.>.>.>.>.>.>.>.>.>.>.>.>.} i 5 5 5 5 5 5 5 6 t ' a.a.a.a.a.a.a.e.,.>.>.>.>.>.:.>.>.>.>.>.>.>.>.",
">.>.>.>.:.#.>.>.>.>.>.>.>.>.X.i 5 5 5 5 5 5 5 5 5 t ~ p.a.a.a.a.a.p.7.>.>.>.>.>.>.>.>.>.>.>.>.>.>.>.",
">.>.>.>.o.c o.>.>.>.>.>.>.X.j 6 5 5 5 5 5 5 5 5 6 e n 5.a.a.a.a.a.r.<.>.>.>.>.>.>.>.>.>.>.>.>.>.>.>.",
">.>.>.>.X.8 i @.>.,.>.&.] i 5 5 5 5 5 6 5 5 5 5 5 9 k 4.a.a.p.a.a.7.>.>.>.>.>.>.>.>.>.>.>.>.>.>.>.>.",
">.>.>.>.@.8 5 j S S S m 8 6 5 5 6 6 6 6 5 5 5 5 5 5 t J 5.a.a.p.p.1.:.>.>.>.>.>.>.>.>.>.>.>.>.>.>.>.",
">.>.>.>.:.m 7 5 5 5 5 5 5 5 , 7 m ] H m 6 5 5 q q q p l K 4.0.0.e.<.>.>.>.>.>.>.>.>.>.>.>.>.>.>.>.>.",
">.>.>.>.>.%.C u 5 5 5 5 8 j z C &.>.>...6 5 6 G $.#.#.%.V y p x *.>.>.>.>.>.>.>.>.>.>.>.>.>.>.>.>.>.",
">.>.>.>.>.>.:.o.j 8 8 z G &.:.>.>.>.>.] 6 5 6 z H >.>.>.C 5 5 7 c ..>.>.>.>.>.>.>.>.>.>.>.>.>.>.>.>.",
">.>.>.>.>.>.>.>.#.@.@.%.>.>.>.>.>.>.>.] 6 5 5 5 q o.>.>.C 5 5 5 , j %.>.>.>.>.>.>.>.>.:.>.>.>.>.>.>.",
">.>.>.>.>.>.>.,.,.>.>.>.>.,.>.>.>.>.>.:.S Z Z Z S %.>.>.o.Z Z Z Z D &.,.>.,.>.>.>.>.,.>.>.>.>.>.>.>.",
"| | | | | | | | | | | | | | | | | | | | | | | | | | | | | | | | | | | | | | | | | | | | | | | | | | "
};
