/* XPM */
static char *coins1704132044[] = {
/* columns rows colors chars-per-pixel */
"50 50 215 2 ",
"   c #3D192D",
".  c #3C1C31",
"X  c #2E263B",
"o  c #2C293E",
"O  c #38273A",
"+  c #4C160F",
"@  c #50180F",
"#  c #4B1416",
"$  c #4B1618",
"%  c #591B17",
"&  c #601C1E",
"*  c #6E310F",
"=  c #65221D",
"-  c #6C241D",
";  c #6A2A1D",
":  c #772C1E",
">  c #6A311B",
",  c #7A341B",
"<  c #7C391D",
"1  c #470D23",
"2  c #490E23",
"3  c #461226",
"4  c #4B1225",
"5  c #44152A",
"6  c #471A2C",
"7  c #541523",
"8  c #581721",
"9  c #541A24",
"0  c #5C1B22",
"q  c #451F32",
"w  c #621E22",
"e  c #4C202C",
"r  c #5D2322",
"t  c #592729",
"y  c #4B2A37",
"u  c #422C3D",
"i  c #5A2C31",
"p  c #4A323C",
"a  c #5D3133",
"s  c #53363C",
"d  c #563E3F",
"f  c #662122",
"g  c #6D2521",
"h  c #652823",
"j  c #6A2A25",
"k  c #652B2B",
"l  c #692B29",
"z  c #702621",
"x  c #722A22",
"c  c #7A3423",
"v  c #7D3B25",
"b  c #75372A",
"n  c #643331",
"m  c #7D4123",
"M  c #2E2C41",
"N  c #372E41",
"B  c #382E41",
"V  c #333245",
"C  c #383043",
"Z  c #323548",
"A  c #35394B",
"S  c #393D4E",
"D  c #393F50",
"F  c #473C47",
"G  c #4C3A43",
"H  c #443D4A",
"J  c #533E42",
"K  c #3E404F",
"L  c #3B4252",
"P  c #41404E",
"I  c #554040",
"U  c #81321D",
"Y  c #88371A",
"T  c #90361E",
"R  c #953A1B",
"E  c #823C24",
"W  c #873C27",
"Q  c #933B22",
"!  c #98461E",
"~  c #B54F0F",
"^  c #B6570F",
"/  c #BC5D0E",
"(  c #AE4212",
")  c #AB4917",
"_  c #AB431A",
"`  c #AF481B",
"'  c #B14612",
"]  c #B44C12",
"[  c #B84D13",
"{  c #B24B1B",
"}  c #AD5214",
"|  c #BD5413",
" . c #B85516",
".. c #BB5B12",
"X. c #B5511F",
"o. c #BE630F",
"O. c #B96915",
"+. c #BE7315",
"@. c #884826",
"#. c #964426",
"$. c #94442B",
"%. c #8C5329",
"&. c #9B5E23",
"*. c #94582A",
"=. c #9A5D29",
"-. c #A24F2D",
";. c #B34E21",
":. c #A8552B",
">. c #B55221",
",. c #B95623",
"<. c #BC5A25",
"1. c #B75B29",
"2. c #AD5830",
"3. c #B15A31",
"4. c #9C6A2C",
"5. c #8B6033",
"6. c #A16827",
"7. c #A67629",
"8. c #B27A2A",
"9. c #BA6630",
"0. c #C05614",
"q. c #C35B13",
"w. c #C15D1F",
"e. c #C2640E",
"r. c #C3690F",
"t. c #CA720E",
"y. c #D27B0E",
"u. c #C46313",
"i. c #C96912",
"p. c #CE6B13",
"a. c #D06D12",
"s. c #C77111",
"d. c #CB7417",
"f. c #CC7A12",
"g. c #D37715",
"h. c #D47C14",
"j. c #C15E21",
"k. c #C15E29",
"l. c #C16124",
"z. c #C66B24",
"x. c #C36429",
"c. c #CB7428",
"v. c #C66A31",
"b. c #CC6E32",
"n. c #CF7133",
"m. c #D17332",
"M. c #BC872B",
"N. c #D8840F",
"B. c #DD8A0F",
"V. c #D38413",
"C. c #D88B15",
"Z. c #D8941C",
"A. c #E18E0D",
"S. c #E2910E",
"D. c #E6A116",
"F. c #E4A41C",
"G. c #E7A91D",
"H. c #ECAE1F",
"J. c #EBB11F",
"K. c #D68928",
"L. c #D18D2F",
"P. c #CA952A",
"I. c #D99927",
"U. c #D78632",
"Y. c #CB9930",
"T. c #E29B2C",
"R. c #E19B32",
"E. c #DBA82D",
"W. c #DEB232",
"Q. c #E6A920",
"!. c #ECAF20",
"~. c #E5AB2B",
"^. c #EEB322",
"/. c #EBB728",
"(. c #EDBB2D",
"). c #F1B925",
"_. c #F1BE28",
"`. c #E5A531",
"'. c #E6A832",
"]. c #E5BA32",
"[. c #ECB937",
"{. c #F0BD33",
"}. c #DAC53F",
"|. c #EFC028",
" X c #F4C52C",
".X c #F6CA2F",
"XX c #EDC333",
"oX c #E6CA38",
"OX c #F1C533",
"+X c #F6CC32",
"@X c #F8CE32",
"#X c #EDDA3D",
"$X c #FAD334",
"%X c #F8D836",
"&X c #F6DD3A",
"*X c #F9E53D",
"=X c #E9B349",
"-X c #EBD743",
";X c #EEC357",
":X c #EFE343",
">X c #F4E944",
",X c #FBEE41",
"<X c #FDF445",
"1X c #FFF946",
"2X c #F1CD78",
"3X c #FCF666",
"4X c #FAF16A",
"5X c #F2D89E",
"6X c #F7E3AF",
"7X c #F7EACD",
"8X c #F9EEDB",
"9X c #FBF1D4",
"0X c #FDFAE7",
"qX c #FEFDF4",
"wX c white",
/* pixels */
"L L L L L L L L L L L L G x z w 2 2 4 4 4 4 g z j F L L L L L L L L L L L L L L L L L L L L L L L L ",
"L L L L L L L L L L L L s g z w 2 2 2 2 2 $ g g j F L L L L L L L L L L L L L L L L L L L L L L L L ",
"L L L L L L L L L H H H d @.@.c h h f j h j E @.E G H H L L L L L L L L L L L L L L L L L L L L L L ",
"L L L L L L L L D s j j 6.[.[.].I.Z.I.I.I.I.(.OX].@.k k F L L L L L L L L L L L L L L L L L L L L L ",
"L L L L L L L L L s z - 7.$X$X XJ.^.!.H.H.).@X$XOX$.z j G L L L L L L L L L L L L L L L L L L L L L ",
"L L L L L L L P L n E c 8.@X$X X!.J.H.H.H.!..X@XXX*.c v J H L L L L L L L L L L L L L L L L L L L L ",
"L L L L L L s l k 7.W.W.~.^.^.^.H.H.H.!.H.!.^.).).oX}.}.5.k k G L L L L L L L L L L L L L L L L L L ",
"L L L L L P a x : M.$X$X XH.H.H.H.!.H.H.H.H.H.H.^.*X1X<X4.z x s L L L L L L L L L L L L L L L L L L ",
"L L L L L L a z x M.+X+X X!.!.^.J.J.H.H.!.!.^././.*X<X>X4.g g s L L L L L L L L L L L L L L L L L L ",
"P L L L P D e 0 8 :.U.R.'.OX X X X X.X*X%X:X6X6X6X=X!.Q.@.9 9 u L L L L L L L L L L L L L L L L L L ",
"L L L L L D q 2 3 $.n.b.R.+X$X$X$X$X%X1X1X3X0XwX0X`.B.B., 1 2 u L L L L L L L L L L L L L L L L L L ",
"L L L L L S q 2 4 $.n.b.R.$X$X@X$X$X%X<X1X3X9XqX0X=XA.B.< 1 1 G L L L L L L L L L L L L L L L L L L ",
"L L L L L L i 0 w Q ,.,.v.R.R.I.K.I.I.~.~.[.2X5X2XK.t.t.U 0 w p P L L L L L D D L L L L L L L L L L ",
"L L L L L L a z g Q _ _ ;.<.x.j.0.| 0.p.p.g.F.G.G.s./ ^ Y g z s D D L L L L L D L L L L L L L L L L ",
"L L L L L P a x g Q _ _ >.x.x.x.0.0.q.a.p.g.F.^.G.s.o./ Y x z s D D D A L L S D L L L L L L L L L L ",
"P L L L L L i r w Q ;.,.,.,.,. .[ ' 0.q.u.u.V.C.C.f.t.s.Y 0 0 i i G G G B F G O G s s G L L L L L L ",
"L L L L D D q 2 4 $.n.n.<.{ { ' ( ( ( ' ] ] / / e.N.S.B.< 1 2 0 z x 0 2 2 2 2 2 7 g z l H L L L L D ",
"L L L L D H q 2 2 $.n.n.k.` ` { ( ( ' ' ] ] / / e.N.S.B.< 3 4 0 z g 0 1 1 2 1 1 4 - g l H L L L L D ",
"L L L L P D y 8 7 Q x.k.<.>.X.{ ' ' ' 0.| / d.t.t.V.y.y.E 7 8 v =.=.%.v v @.v m @.=.=.%.d F G S L L ",
"L L L L L P a z z Q _ _ ;.x.x.l.0.| q.a.p.g.F.H.F.i.e./ Y j x M.+X+X_.H.Q.Q.Q.Q.!.OX+X].E j j H L L ",
"P L L L D H a x z Q _ _ X.x.x.l.0.0.q.a.a.a.F.^.G.s./ ..Y g g M.$X$X X!.H.J.H.H./.$X$X].U g h H L D ",
"L L P P F F i w f Q ;.;.X.<.x. .| [ 0.i.p.a.Z.F.Z.O.} } ! @.@.P.@X.X_.H.H.H.H.H.^. X@X].4.%.%.I H H ",
"L L P a l j 8 4 4 $.v.v.k.{ { { ' ( ( ~ [ ~ e.e.o.Y : , P.OXOX(.^.!.^.H.H.H.H.H.!.^.H.).#X>X-X@.l l ",
"L L H a z z 7 2 2 Q b.b.k.` ` ( ( ( ( ' ] ~ / / ^ U g c Y.%X$X|.H.H.H.H.H.H.H.H.H.H.H.^.,X1X:X%.z x ",
"P P H b E v 0 7 7 Q b.v.k.{ { { ( ( ' [ ~ ~ / e..., - z Y.OXOX_.^.^.!.!.^.^._.).).[.[.=X*X*X#X%.w z ",
"k n n Y.].W.%.f w Q ;._ ;.k.k.w.[ | 0.i.p.i.p.p.u.g 4 7 2.U.U.'.+X+X@X@X@X$X*X*X4X9X9X6X~.D.Z.> 4 7 ",
"x g c W.$X@X&.z z Q _ _ ;.x.x.l.0.0.q.a.a.a.a.a.u.f 1 7 -.b.b.'.%X$X$X$X$X&X<X1X4XqXwX8X`.A.V.; 2 2 ",
"x g c `.$XOX*.g w T _ ;.>.x.x.j.0.| 0.p.p.a.a.a.u.; 4 4 -.b.b.`.+X+X@X+X+X%X,X,X4X0XqX7XT.B.V.- 2 4 ",
"9 9 h 9.U.U.c 7 7 #.x.x.k.X.;.{ ' ' ' | ~ | e.e...U w w Q ;.;.z.K.m.K.d.d.g.K.Z.T.;X;X=Xd.r.e., w w ",
"1 1 9 3.m.b.x 2 2 $.b.n.k.` { ` ( ( ' ' ] ~ / / | U x z R _ _ ,.x.x. .0.0.q.a.p.h.G.J.F.e./ ^ U x z ",
"2 2 7 3.b.v.x 1 4 #.b.b.k.( ( ( ( ( ( ' ] ~ / / ^ U z z Q _ _ ,.x.x.j.0.| q.a.a.h.G.Q.F.i.o.| U z z ",
"O O u l c b 0 $ # - , U x z z - - & : Y Y T | .. .g 8 0 -.k.k.,.>.>.{ ] ' [ ..| o.f.f.f.y.y.s.z 7 w ",
"A Z N 5 2 2 # + + + + + + 1 1 1 2 2 7 g g : { 0. .w 2 7 -.b.m.<._ ` ( ( ( ' ' ' ~ / / e.B.S.V.; 2 2 ",
"Z Z Z 5 2 1 # + + + + + # $ 2 2 2 $ 7 g z c [ 0.[ w 2 4 -.b.b.j.` ` ( ( ' ' ] ] ~ / / u.B.A.V.; 2 2 ",
"S S A O y . 9 % % @.7.7.6.&.4.&.&.&.6.8.8.8.! R R & # $ Q k.<.,.,.,.>.[ [ ~ q.q.u.V.V.V.y.y.s.: 0 0 ",
"L L L A Z Z a z x M.$X$X XH.H.G.H.H.).@X$X].E z - @ # @ Y _ _ ,.x.x.j.0.0.q.a.a.h.G.^.F.e./ ^ , z z ",
"L L L Z Z Z i g - M.%X@X XH.H.J.H.H.^.@X%XW.v f - @ @ @ Y ( _ ,.x.x.j.| 0.q.a.a.V.G.J.F.e./ ^ U z z ",
"D S S p p p %.6.6.I. X X).H.H.H.H.H.^. X XW.M.7.4.; % % ! ;.;.,.<.k. .[ [ | q.u.i.C.Z.C.t.t.r., w w ",
"Z Z C k g x Y.$X$X_.H.H.H.H.H.H.H.H.H.J.J.).,X1X:X%.- x 3.b.b.,.` ` ` ( ( ' ' ~ ~ / o.e.B.A.V.; 2 2 ",
"Z Z V k - x E.$X$X|.H.H.H.H.H.H.H.H.H.J.G.).*X1X>X*.z x 1.b.n.k.' ` ( ( ( ' ' ' ] / / u.B.S.N.; 1 1 ",
"V V N t f j L.{.{.(.^.).^.^.).). X_.XX;X=X;X&X%XoX@.= ; $.2.2.;.X.X.{ { ( ] | | ..s.+.+.+.O.O.t 5 q ",
"o o X 5 4 4 -.m.m.`.$X@X$X@X$X&X,X<X4X0XqX9X`.Z.C.* + + $ 7 7 @.x.l.w.| | q.p.p.h.G.G.Z.; $ e O V V ",
"X o X 5 2 7 -.n.n.'.$X$X$X$X$X*X<X1X4XqXwX8XR.A.C.* + + 2 2 1 $.z.z.j.| | q.a.a.h.J.J.Z.r 2 3 O Z Z ",
"o M o   5 4 $.9.9.L.OXOX{.(._.OX&X&X4X7X8X6XL.s.+.> $ $ 4 5 5 v >.:.>.) ) } ....O.K.Z.M.t 5 6 Z A A ",
"Z V V X X X 6 0 0 #.c.c.z.u.u.i.g.h.C.T.T.L.; r % O o A o X X 6 8 8 8 8 8 8 8 8 % r r t O V C S D L ",
"Z Z Z M X o 5 2 4 W x.z.j.0.| q.p.a.g.B.S.y.r 4   O Z A M o X   2 2 2 3 2 2 2 2 2 1 1 3 C A Z L L L ",
"Z Z Z M o o   2 4 W 1.1.,.[ {  .o.u.s.V.V.+.t 6 6 o Z Z M o o . 5 4 4 5 4 5 5 4 5 4 3 6 V Z A L L L ",
"L L A Z V V X X X e 0 f 0 & & w = = & = ; r O O O K K K Z Z Z N B B B B B B B B B N C C A L S L L L ",
"L L L A Z Z M o o   1 1 1 4 2 2 1 2 2 1 2 3 V Z Z L L L A Z Z Z Z Z Z Z Z Z Z Z Z Z Z Z D L L L L L ",
"L L L A Z Z M o o   1 1 2 2 2 4 4 2 2 2 2 3 C Z Z L L L A Z V Z Z Z Z Z Z Z V Z Z Z Z Z D L L L L L "
};
