/* XPM */
static char *exit1704132044[] = {
/* columns rows colors chars-per-pixel */
"50 50 120 2 ",
"   c #010101",
".  c #090605",
"X  c #0C0807",
"o  c #0D0A09",
"O  c #150E0C",
"+  c #17100E",
"@  c #19110F",
"#  c #1C1311",
"$  c #1D1C1C",
"%  c #211613",
"&  c #281A17",
"*  c #2C1D1A",
"=  c #2F201C",
"-  c #32221E",
";  c #262222",
":  c #282727",
">  c #2C2B2B",
",  c #352623",
"<  c #3C2925",
"1  c #342D2B",
"2  c #3C2C28",
"3  c #373332",
"4  c #393736",
"5  c #3A3939",
"6  c #422B26",
"7  c #442E29",
"8  c #482F2A",
"9  c #45312C",
"0  c #4D332D",
"q  c #50362F",
"w  c #433633",
"e  c #453E3C",
"r  c #513730",
"t  c #543932",
"y  c #5A3D35",
"u  c #46403F",
"i  c #49413F",
"p  c #50423F",
"a  c #64453B",
"s  c #454342",
"d  c #4C4342",
"f  c #4D4C4B",
"g  c #554845",
"h  c #5F4A43",
"j  c #504F4F",
"k  c #545353",
"l  c #585757",
"z  c #5B5A59",
"x  c #684B42",
"c  c #69524A",
"v  c #715145",
"b  c #78584D",
"n  c #665854",
"m  c #7C655D",
"M  c #656464",
"N  c #686767",
"B  c #6D6C6C",
"V  c #756560",
"C  c #706F6F",
"Z  c #7B6E6A",
"A  c #79716E",
"S  c #737373",
"D  c #787777",
"F  c #777778",
"G  c #777878",
"H  c #7C7B7B",
"J  c #B46E3E",
"K  c #B47937",
"L  c #B6773E",
"P  c #B47349",
"I  c #826860",
"U  c #82716B",
"Y  c #807977",
"T  c #897872",
"R  c #807F7F",
"E  c #EC7F4C",
"W  c #F38927",
"Q  c #ED8D3D",
"!  c #ED923D",
"~  c #E89D39",
"^  c #89807C",
"/  c #AA8F77",
"(  c #B99773",
")  c #D5985A",
"_  c #E78E4E",
"`  c #EA9C44",
"'  c #E6AB4A",
"]  c #D29E6D",
"[  c #CE9475",
"{  c #D79673",
"}  c #D89E79",
"|  c #C6AB7B",
" . c #848484",
".. c #898686",
"X. c #8B8B8B",
"o. c #918F8E",
"O. c #939393",
"+. c #9B9B9B",
"@. c #AA948D",
"#. c #A39B99",
"$. c #A3A3A3",
"%. c #AAAAAA",
"&. c #B7A7A2",
"*. c #B8A9A6",
"=. c #B0AFAF",
"-. c #BAAEAB",
";. c #B3B3B3",
":. c #B9B7B7",
">. c #BCBBBB",
",. c #C59C88",
"<. c #C4B793",
"1. c #C3BCAC",
"2. c #C1B8B6",
"3. c #D7C182",
"4. c #DFCD9B",
"5. c #C8C0AB",
"6. c #C5C1BC",
"7. c #BEBFC1",
"8. c #C2C2C2",
"9. c #CCCCCD",
/* pixels */
"B B R X.X...X.X.X.X.X.G B B C C C C S C B B C S B B N N S C S B C B B C B B  .X.X.X.O.X.^ ...... .S ",
"S  ...O.+.o.O.$.O. .X.O. .S S C N C G H S B B C S C N M C C S  .B N C C S S ..+.O.X.+.:.$.X.o.+.o.X.",
" .X.O.%.;.=.;.7.=.+.X.o.+.o.S C G G H X.G C G H H S C S H G G  .C S H H  .H O.=.:.%.%.9.>.$.%.$.+.O.",
"X.X.$.:.8.2.3.4.6.>.+.O.O...S G  .H S  . .S H  . .S H  . . .S C N  . . .O.X.$.7.8.6.<.5.1.%.=.$.+.O.",
" .H +.=.*.[ ' ' ) @.O...R G B B C B B B B N B C B S S B B B B N B B C C S O.;.;.;.,.~ Q ] | %.O.X. .",
"X. .%.>.} _ W ` } #.+.+.X.R N C S S C B B B C G B  .G S B B B N B C G S G $.:.=.1.{ ! Q E { %.O.O...",
"+.O.%.:.( K K / >.O.$.$.o.X.R C  .S R S R  ... .G R S  . . .G G ..G R ..X.+.;.%.&.P L J [ -.$.%.$...",
"H S  .X.U b b m o.X.X.X.G C C N C B S B B S S C B B B S S S C C C B C S S H X.o...b b b R O.X.X.X. .",
"B B H ..A c v V ..X.X.X. .B B C S C G R M S B B S S C N B C S  .B S B C S S G X...m x I O.O.X.O.+.X.",
"S S S H H c x Y H S S  . .C H R R H G R S R R H G H G S S H G X.H H S H R R R ..X.Z a T %.+.$.$.+.X.",
"H H S H H n h F H H S D H C H H R G S B G R R R R R H H H G C R H H B H H R R  .X.A h C X.X.X. .R R ",
"H B B B C C C C S B C B G G B B B B C C B B C S B G C B C B B C C B B B B S F B C B B C C B B C B B ",
"..S C B S G G S B S G S H  .C B S S M j k f f j f l j k j f j M S G C F C S S B C C G G S C S G S G ",
"X...R S  ... .B C  ...H H X...S G k 3 > 2 7 2 7 2 2 2 2 3 2 , 3 f H  ...R S  . .^  . ... .S  .X. .S ",
"S C B B C C S B B S B B B C C B k 1 7 7 0 r r r 8 8 q 0 q 0 7 7 1 f B B B B N B C C C G B B C B B B ",
"S S C B S C R R S S C B B S S M 4 7 r 7 0 t 0 r 8 8 t 0 0 0 7 0 2 3 M S B S B B S S S ..S C B B N B ",
" .R S R  .G R X. . . . .H  .B 4 2 q r 7 0 t q 0 0 8 t q q 0 7 0 0 2 3 B  .H H  .R  .S X. . .R H R R ",
"R S S G G S S G H H S G H H l 1 q r 0 7 0 t q 0 8 0 t q 0 0 8 q q 0 1 k H H H H H G B H H G G G H H ",
"H S S B B C B B B B M B S S 3 2 t r 0 7 0 0 0 0 7 8 q 0 q 0 7 t r q 7 f B G H B C S B B C S C S B B ",
"..G G G S G G B B H S S H f . + % % # # # % # % @ % 8 q t 0 7 t r 0 7 f S H H B H H S S G H H H F B ",
".. . . . . . .R S ....H S 3   o O + + O O + + O O @ 6 q t q 8 q t 0 2 l H G R S  ..... . . . . .R S ",
"C C C C C B S S B B B B M M > < 0 0 q 6 8 8 0 0 7 6 q q y t 8 q q q 9 f B B C B B B C G C C C C B B ",
"G C S S S S R R S S S S B S k 2 0 r t 7 0 q t t 8 8 0 0 q q 8 0 q t 9 f B S S S B S S ..S G S S S S ",
" .S  .X...R R X.G G .. . . .z 9 q 0 0 7 8 r t t 8 8 q q 0 q 6 0 0 t 9 l .. .S H  . .S X.....R S C  .",
"S B S S S C B S B S S S G G j 7 t q q 6 0 q y t 8 8 q q q 0 7 0 q t 9 f S G B S S S B C S S S C M S ",
"R S B B B S C B B S S B G R j 9 y q 0 8 0 t y t 8 8 t t q 0 7 0 0 r 9 f B H H B B C S C B B C S C S ",
"X.H G S H R R R G R R S R ..l 9 t q q 7 r t y t 8 8 t t q 0 6 q t q 7 k G H ..F S H R H G G H H H S ",
" .R H S R R R  .R  . .G S  .l 3 t q t 8 q r q t 8 8 q t r r 8 0 t r 2 l H S  .S G  .R  .R  . .R H B ",
"B N B B B B S G C C B B B B s w y t q 8 q t t t 8 8 r r r t 8 0 r 0 7 s B B B C B B B H C C B C C C ",
"G S B S G S R R S G S B F M $ = - - - * - - - - = * = - - - * - - , < f G C B S S B C ..G G C S F G ",
" . .S R  .R H X.....G G ..B o                                 O > ; > l  .G G .. .R G X... .S R .. .",
"S S B B S B B B B B B B S M O + @ % @ + @ # @ % # + # # # + + 2 1 4 w f C C S C N B B B B C B C C C ",
" .C B B B S S B B S S B H S 5 3 8 q q 6 0 q 0 q 8 8 0 0 8 8 7 t g g w f C H R B B B S B B S S S S S ",
"X. .G H R  . .R R R R H B H l 3 q q q 6 8 q 0 q 8 8 q q q 0 7 q t t 7 k G R  .S G  . .G S R R  .H S ",
"H R H H H H H H H H H G B C j 7 q 0 q 6 0 q q q 0 8 q q q 8 7 0 0 r 7 k S C H C S R H R H G H H F B ",
"B B C C C B G S M B B B C S f 7 q q 0 8 0 t q q 8 8 t t 0 q 7 0 0 t 7 f B B C B B C B R C N B S B B ",
"B G G G H S R R S G S B G G k 3 t q 0 6 0 t q q 8 8 q q q 0 6 q 0 t w f S S S B G G S X.G B S F S S ",
" . . . .X.H H X.......C  ...z 7 y t 0 8 0 t q 0 8 8 0 q 0 0 8 q q r 7 l  . .H F .. .S .... . . . . .",
"G C C B B C B C B C S B S D j 9 t q 0 7 0 t q 0 0 8 q 0 q 0 6 q r 0 7 f B S S C B B B B B B C S C C ",
" .S G B B S S S S S S C H H s 7 t q q 7 0 r q q 8 8 0 q t 0 8 t r 0 7 f B H R S S N C B B S S S S S ",
"X. . . .R  .R B B R  .R H k o $ * * * & * * - - & & 0 q t 0 7 t r q 7 k G R X. . .R  . .S  . . .R S ",
"G G G G G G G B M S S S B >   . X X X X X X X X X O 6 q q 0 8 t t r 2 j S B G S G S G G C S G G S B ",
"S C S S S C G H S S B S S M : - 7 7 6 < 7 7 8 8 6 < 0 0 q 0 7 t r q 7 f S B S S C S C  .S B B S S C ",
"S R .. ...R R X..... .......z , 6 6 7 6 7 7 7 8 7 < 7 0 7 6 2 7 7 7 1 l R S  .X.R S S X... . ... .S ",
"B S B S S B B S C C B C B B z s s i e i e e i p u e i d s s e s e d e l S B S C B B B C B B S S C N ",
"S G S S B B C S B S B S B M C G D S B C B C S C B M B S C C N B N B B M S G S C B S B B M S G S H S ",
"S H G C N B B G C S B S S B M N B N M B M B B B B C B B G B M B B N B B B S S B N B S B B S G S H H ",
"S B B N B B B B B B C B B B B B S S N B M B S S S H C B C B N B B C H S B B M B B M B B M B S S S C ",
"B M N S B B S M N B S G F B S C C S B S B S H G S B N B C C M N S B S B C C S S S B M M B S F S M S ",
"B S S S C S B B H G C G S B N B B N C B N B C S C B C N B B B N B B N M B S S F C B B N B C S C B S "
};
