/* XPM */
static char *floor1704132044[] = {
/* columns rows colors chars-per-pixel */
"50 50 212 2 ",
"   c #170301",
".  c #1B0301",
"X  c #230401",
"o  c #2C0401",
"O  c #230801",
"+  c #2B0901",
"@  c #330401",
"#  c #3B0501",
"$  c #330A01",
"%  c #3B0901",
"&  c #2F1102",
"*  c #3E1001",
"=  c #430501",
"-  c #4B0601",
";  c #440A01",
":  c #4B0A01",
">  c #530601",
",  c #5B0601",
"<  c #540A01",
"1  c #5B0A01",
"2  c #401101",
"3  c #4B1201",
"4  c #481D00",
"5  c #571201",
"6  c #5F1201",
"7  c #5C1B01",
"8  c #630701",
"9  c #6C0701",
"0  c #630B01",
"q  c #6B0B01",
"w  c #740701",
"e  c #7C0701",
"r  c #730A01",
"t  c #7C0B01",
"y  c #641101",
"u  c #6C1301",
"i  c #621B01",
"p  c #6B1801",
"a  c #721201",
"s  c #7A1101",
"d  c #741C01",
"f  c #7B1B01",
"g  c #4F2002",
"h  c #7B2201",
"j  c #742902",
"k  c #6D3802",
"l  c #830701",
"z  c #8C0701",
"x  c #840B01",
"c  c #8B0B01",
"v  c #9F0701",
"b  c #940B01",
"n  c #9B0C01",
"m  c #831301",
"M  c #8B1301",
"N  c #851D01",
"B  c #8B1A01",
"V  c #921301",
"C  c #9C1201",
"Z  c #931B01",
"A  c #9C1B01",
"S  c #AC0701",
"D  c #A30B01",
"F  c #AC0C01",
"G  c #B30C01",
"H  c #BC0B01",
"J  c #A41301",
"K  c #AC1301",
"L  c #A31B01",
"P  c #AC1A01",
"I  c #B41401",
"U  c #BC1401",
"Y  c #B31C01",
"T  c #BC1D01",
"R  c #822201",
"E  c #8B2202",
"W  c #882D02",
"Q  c #952502",
"!  c #9C2201",
"~  c #962B01",
"^  c #9E2C01",
"/  c #893203",
"(  c #973705",
")  c #A72701",
"_  c #AC2501",
"`  c #B42300",
"'  c #BB2101",
"]  c #B42A01",
"[  c #BB2B01",
"{  c #A83703",
"}  c #B73502",
"|  c #BA3D03",
" . c #C40E01",
".. c #CB0E01",
"X. c #D20B01",
"o. c #DA0E01",
"O. c #C51301",
"+. c #CB1301",
"@. c #C21B01",
"#. c #CA1C01",
"$. c #D31301",
"%. c #DC1401",
"&. c #D41A01",
"*. c #DA1C01",
"=. c #E30E01",
"-. c #EC0E01",
";. c #E11501",
":. c #EB1301",
">. c #E31B01",
",. c #EA1E01",
"<. c #F81701",
"1. c #FA1A01",
"2. c #C42501",
"3. c #CD2201",
"4. c #C52D02",
"5. c #CB2C02",
"6. c #D42401",
"7. c #DC2301",
"8. c #D22B01",
"9. c #DC2B01",
"0. c #C43601",
"q. c #C93401",
"w. c #C23B01",
"e. c #D63301",
"r. c #DD3B02",
"t. c #E62301",
"y. c #EC2501",
"u. c #E32A01",
"i. c #E92A01",
"p. c #F22401",
"a. c #FA2601",
"s. c #F42A01",
"d. c #FA2C01",
"f. c #E43B01",
"g. c #E93A01",
"h. c #F53201",
"j. c #FC3301",
"k. c #F23B01",
"l. c #FA3A02",
"z. c #9D4607",
"x. c #AA4308",
"c. c #B44404",
"v. c #BB4807",
"b. c #A95903",
"n. c #AF6D0B",
"m. c #B66806",
"M. c #B57212",
"N. c #A0732C",
"B. c #C34302",
"V. c #C94402",
"C. c #CC4C02",
"Z. c #D44202",
"A. c #D34D02",
"S. c #DB4B02",
"D. c #C75404",
"F. c #C25B02",
"G. c #CA5A03",
"H. c #D85105",
"J. c #E74401",
"K. c #EC4302",
"L. c #E34A02",
"P. c #ED4905",
"I. c #F94202",
"U. c #F34B02",
"Y. c #E35604",
"T. c #EC5602",
"R. c #E55C05",
"E. c #F55B03",
"W. c #CC6306",
"Q. c #D86002",
"!. c #D57005",
"~. c #E46403",
"^. c #E86A04",
"/. c #FE6405",
"(. c #F16A05",
"). c #E87706",
"_. c #F97908",
"`. c #E56812",
"'. c #E67C1E",
"]. c #BC8708",
"[. c #D09A0C",
"{. c #D48516",
"}. c #E58305",
"|. c #E78908",
" X c #F68C03",
".X c #F88A08",
"XX c #EA9606",
"oX c #FC9406",
"OX c #F4970B",
"+X c #ED8511",
"@X c #E78218",
"#X c #F98E11",
"$X c #E59D18",
"%X c #F29E11",
"&X c #EAA106",
"*X c #FDA106",
"=X c #FAAB07",
"-X c #EAB505",
";X c #F7B605",
":X c #EFAA10",
">X c #FFB91F",
",X c #E29520",
"<X c #F68F3D",
"1X c #FBB52E",
"2X c #F9C905",
"3X c #FCC613",
"4X c #F8CE2D",
"5X c #FDEC23",
"6X c #EED047",
"7X c #EBCD54",
"8X c #FFFF58",
"9X c #FEF58B",
/* pixels */
"o @ @ o o X o j { } ).C.u .           . - K r - = > x U I q s T < . .                   . . X @ > e ",
"X o o o o X X o @ q A.` 8 # X . . . X # Q K.' m c D O.D > @ = x V #                   . . . o # , x ",
". X X X o o X X o N q.c z w , - = - u | ^.(.k.i.>.O.c - o X X # c m #   .             . X @ = , e n ",
". . X X o o @ o - q._ 0 9 w w t c T Z.C.^ m V U &.C > o . .   X ; K P # .         . X o @ : w c z x ",
". . . X X @ # , { L.Y x t t r x 8.f.N - @ # = r J m : X .       X - P A = . . . . X @ = q K I t 8 8 ",
". . . X o # a W.|.Q c P Y I J ' e.f $ X . X o - t t ; O         . X , @.T 0 = @ @ = 1 C $.*.V 1 > > ",
"X X . o @ , V.!.i + o % 0 _ g.U.) # X . . . X # 0 t > X           X % r *.*.D M N ( v.(.p.D q 0 0 1 ",
"X o o @ > _ w.i         . $ { *X{ o .     . . o > t 1 o .       . . o - J y.a.l. X3X1XoXs.I M r q 0 ",
"@ % % > C 9.0 .             k ;XY.1         X o = 8 9 # X       . . o - c &.d.a.l.l.a.l.j.s.;.I V q ",
"# : y V $.x o .             % L.I.] o     . X o = , w , # O     . X @ > n *.d.a.:.o.=.=.>.y.p.s.7.b ",
"> r A @.G > .               o q./.H.% . . . X @ = , e l < $ X . X o = r +.d.d.y.#.F G G F K J Y O. .",
"r J 5.P c = .               . W =XQ.> o o o @ = > 8 z K L s 6 5 # # 8 [ E.h.;.U P P b b M r 1 y r b ",
"U 7.' V r %                   * [.^.c , - - , 8 e z I &.f.~.|.&X].z.F. XU...D C V A A B a < % $ @ = ",
"(.U.9.@.x #                   % W..Xy.#.S b b S G D b t f / m.-X5X5X=Xe.F b x l x x V Z y % $ X X X ",
"{ W { L.9.D =         .     O h f.O.O.;.<.-.X.H z 8 ; % @ o @ i b.&X.XI x w 9 r e x c m , % o . . . ",
"o . X 0 7.1.$.x @         O 2 5.T 9 8 w H -.o.b 1 % + X . . . o - }  X_ 9 8 0 8 w c b x < $ O .     ",
"        0 >.1.1.I % . . O % B *.t = # = 9 O.t.V : + .       . X % B ).r.w 1 , 0 9 c D b 1 $ O       ",
"        X K <.1.l.) $ + : A 7.b = @ @ @ - A T.Z # X .         . % s L.U.G 9 8 8 w n G n q % + . . . ",
"          # U d./.;Xb.u A J.U 0 = o o @ = m ^.Q # X .         . @ r _ f.;.F t w c I %...b > @ + X X ",
"            % Z (.2X3X+X_.U.n > # @ o # < ) %X{ = X .     . . . # u r E K o...S H ;.a.E.~.v.h y 5 1 ",
"              $ Y I.P._.3X).n 8 - # # : a 2.).5.9 o .         . = 0 < 7 < z =.-.-.:.$.] B.).}.).).~.",
"              : I ;.H ..P. X4.l 8 , 1 a L O.x 9 w - X       . X = : % * @ - D -.=.S 9 - = 5 h m.OX).",
"            O t &.K x b H i.s. .n x a x K s # o # - = o . . . @ = $ O + O @ 9 :. .8 # o o o o # Z K.",
"        . . $ I U r 0 w z D +.:.&.C x x q % X   . X # - o . X = @ O O X . X > $.U - o X . . . X < @.",
"    .     X q +.x , , , 9 w x K &. .b z > o .       . o > = # = O . . O . O - O.F = o . .   . X $ r ",
": ; + X o q +.F 8 > > > > , , r n +.G l = . .         . @ 9 p @ .   . . . . = T Y = o . . . . X o - ",
"q.8.} { v.S.t.c , > - > - - - - 8 b H b - .               4 M.N.&   . O X X - U 3., o X . . X O @ = ",
"y a ) S.).*XR.b 9 , > - = = ; = - 9 H .., X   .           g 7X7X4 . O + + $ 8 ..o.e = @ o X O + $ : ",
"o X @ , M 8.(.H.L t 0 > - ; # = - , c 6.s @ . .         . 3 M.|.j $ $ * ; < l H X.S q = # o o o # : ",
"X X o - b S L V.^.S.C 8 > : = - < 8 w ` D.y X . .     . X X o d P , % 3 y s l c b D b q < ; # # - 0 ",
"  X # e c , = > E H.f.V 0 , 1 1 8 0 8 t v.F.p o X . .   . . . o e w - < a M t q 0 r V Z t 0 > > w F ",
". % w c , o X . o , | S.B r r r 8 > = = - ( G.R @ + X   . . . X = 8 8 9 s s y < : 5 q t c c w w G %.",
": l n > X .       . 1 H.e.n x r - @ o o o @ d | a @ X X . . X X # 9 e l 9 , - # # # = , l n D H X.x ",
"H.I > X .       . . o B T.@.t > @ o X . . X @ q ] r @ X . . O + # w v e , = # o o @ @ = 9 n ..:.G = ",
"`.M @ .             . < {.c.0 = o . .     . o @ M 8.B = X X + % > D S 8 = @ o o X o @ # , b u.h.t o ",
"E n - .             . = {.x.- o X .       . X @ , P 7.2.u = % 3 M o.z - @ o X X X X o @ - l ^.C.- X ",
"$ m b o .         . X m @X( = o X         . X # 8 w e I #.K q p 0.3.8 # @ X X . . X X @ - r ).c.# X ",
". : J 0 o .   . . . @ | OXQ - @ X .     . . @ > r , # # < Z | W.+Xw.< @ o X X . X X o @ = s XXF.# X ",
". O p c = @ X X X # s |.#XI 9 # o X X . X $ : t 9 # o o X o 0 n.4Xv.5 # o X . . X o @ # > V ;X2Xj O ",
"  . : Z r ; # # 9 I y.I.d.o.b , # o o X + 3 m C < o     . X @ ( 6X@XR ; @ o o o o # = 1 t @.>X8XM.- ",
"    + u A f u V $.>.Y D ..$.I x , = # # ; u K x # X . . . X = ' `.:XXX^ < # = - > 9 x n H ,.<X9X,X` ",
"  . . ; A Y [ e.L q > , l G S b x r q y u I O., o . . . . + s #.r d F.oXD.t t l n S D D b n P $X_.u.",
"    . @ n %.#.N 3 o @ # 1 b D D n C F J T g.Y < o X . . X > I r X . 2 m.;XL.+.G D c w 8 > > t S.2.Z ",
"  . . @ Z 7.e @ + X X @ > t n D F  .>.p.#X#XK y # o X X = P m X   .   + m.oXO.b w > = # # # x g.L p ",
". . X = ] w.= o O X X o - t D G +.:.a.j._./.;.C 0 ; # = x @.%           i ).[ 0 : @ @ @ @ # m T.^ 5 ",
"= - 0 E '.D.= X X X X @ > x U >.s.1.y.%.o.:.:.O.V q 0 x +.r .           o G.B., # o o X o @ m L.N % ",
"t D 3.R.1X@X_ 0 o + o @ > K p.a.,.U L V v H U I J J K &.U #             o 0.f.0 @ o o X o % Z 8.y $ ",
"9 x c m Q [ u.6.L N 6 , B Y.j.$.n t r a t b b x M A 6.l.A +             X ^ r., @ o X o o ; P #., o ",
"= # # = = # - q P L.~.G.|.^.F c 9 8 , 9 r c c r 9 x Y k.! + .           X ~ f.9 # o o o o > T J - o ",
"o o o @ o o X . # a C.#X+XA 9 8 , , , 0 r c c q 8 q b *.L $ .         . o B r.t - @ o o # 0 Y M = o "
};
