/* XPM */
static char *wall1704132045[] = {
/* columns rows colors chars-per-pixel */
"50 50 175 2 ",
"   c #151522",
".  c #171824",
"X  c #191A26",
"o  c #14132B",
"O  c #1A162E",
"+  c #17182E",
"@  c #19192E",
"#  c #171A30",
"$  c #1C1C31",
"%  c #231A2E",
"&  c #351D2B",
"*  c #231D33",
"=  c #2A1E34",
"-  c #301F33",
";  c #1E2135",
":  c #34222F",
">  c #232236",
",  c #2A2236",
"<  c #272837",
"1  c #2D2C37",
"2  c #262438",
"3  c #2C2539",
"4  c #2E2938",
"5  c #332335",
"6  c #3C2535",
"7  c #362835",
"8  c #3B2935",
"9  c #32263B",
"0  c #3A273C",
"q  c #34293C",
"w  c #3B2A3D",
"e  c #3F3939",
"r  c #43242D",
"t  c #432636",
"y  c #482736",
"u  c #422B34",
"i  c #4B2D34",
"p  c #422739",
"a  c #432C3C",
"s  c #4C2D3C",
"d  c #532E3E",
"f  c #582F3E",
"g  c #473736",
"h  c #42353E",
"j  c #4F303E",
"k  c #4D3F3B",
"l  c #543134",
"z  c #5D3936",
"x  c #53313E",
"c  c #5B313E",
"v  c #662F2E",
"b  c #613432",
"n  c #6C3734",
"m  c #65363C",
"M  c #6E393C",
"N  c #753630",
"B  c #743A33",
"V  c #7F3E37",
"C  c #753B3D",
"Z  c #7B3C3B",
"A  c #4B433A",
"S  c #52423D",
"D  c #6A4133",
"F  c #664A3B",
"G  c #705B3E",
"H  c #3D2B41",
"J  c #422D42",
"K  c #4A2F42",
"L  c #522F40",
"P  c #4D3043",
"I  c #533242",
"U  c #5C3442",
"Y  c #633643",
"T  c #6A3743",
"R  c #6C3945",
"E  c #723B45",
"W  c #7A3D44",
"Q  c #574241",
"!  c #7B4044",
"~  c #7B6240",
"^  c #86351F",
"/  c #893A2A",
"(  c #813D35",
")  c #8C3F33",
"_  c #833E3B",
"`  c #AD3F21",
"'  c #8D462F",
"]  c #934B2D",
"[  c #8E4231",
"{  c #8C413C",
"}  c #944232",
"|  c #9B4532",
" . c #92433D",
".. c #9C453A",
"X. c #AD4022",
"o. c #AC482F",
"O. c #B54425",
"+. c #BA4627",
"@. c #BC4827",
"#. c #BB4728",
"$. c #B74B2F",
"%. c #BD4929",
"&. c #A34634",
"*. c #AB4A35",
"=. c #B34B33",
"-. c #A3773A",
";. c #A97B3A",
":. c #C44D2C",
">. c #CA4F2E",
",. c #C6502D",
"<. c #CB512E",
"1. c #CE592C",
"2. c #D15C2C",
"3. c #C34F30",
"4. c #CB5731",
"5. c #D15F32",
"6. c #C7652E",
"7. c #D36227",
"8. c #DB6B26",
"9. c #D5632A",
"0. c #D86628",
"q. c #D96C2C",
"w. c #DE7125",
"e. c #D97328",
"r. c #CF6F38",
"t. c #D46431",
"y. c #DC7136",
"u. c #E17525",
"i. c #E57C22",
"p. c #E37B28",
"a. c #823F42",
"s. c #874041",
"d. c #8B4140",
"f. c #8A4C45",
"g. c #9A7744",
"h. c #A97B44",
"j. c #B4833C",
"k. c #EC871F",
"l. c #EC881F",
"z. c #C38D3E",
"x. c #DE8C3E",
"c. c #DA973E",
"v. c #D1983F",
"b. c #E78021",
"n. c #E98321",
"m. c #EE8C22",
"M. c #E4812E",
"N. c #F08E23",
"B. c #EF9227",
"V. c #F09125",
"C. c #F1962A",
"Z. c #F39B2E",
"A. c #E3923B",
"S. c #F39F31",
"D. c #F4A233",
"F. c #F6AA3B",
"G. c #F8AE3D",
"H. c #A88144",
"J. c #B78747",
"K. c #B08844",
"L. c #BA9146",
"P. c #C29346",
"I. c #DA9A41",
"U. c #E49742",
"Y. c #EB9D44",
"T. c #DDA040",
"R. c #DAA549",
"E. c #E5A641",
"W. c #E9A547",
"Q. c #ECAB42",
"!. c #E6AC49",
"~. c #F4AD42",
"^. c #FAB443",
"/. c #F6B649",
"(. c #FBBE4C",
/* pixels */
"                . @ % . X X O                                 o o               X O .     O       X ",
"o o o o o o o o $ 3 , O @ < 3 * O o o o o o o o o o o o o o $ > $ o o o o o o o + $ o o o + @ o # < ",
"o o # ; 2 2 o $ $ * o o > q J H 9 o o o o o o o o o o o o o ; 9 H - $ o o o o o o o o o o o o o ; ; ",
"o o @ o * , o o o o o o @ w H J 0 o o   o o o o o   o o o o 3 H J J = o o @ o O 7 3 @ @ o o   o > 2 ",
"o # # o o o o o # o o @ o O 3 q 3 o o o o o o o o o o o o o # 9 H H 3 o $ ; o o = 3 ; o o o o o * 0 ",
"$ 2 O o o o # $ > $ # ; # o o # $ o o o o o o o o $ ; o + $ o o # > # O ; $ o o o o # o # o o o o # ",
"> * o o o $ 9 q 3 o # ; > $ # o o o o o o o o o $ 4 > o @ ; $ o o o + o $ # o o o o # ; > # o o o o ",
"* o o o # H 0 9 3 * # > 3 3 > $ $ # O o o + o * 9 H > o o $ ; ; $ + + o o o   o o * 3 H 3 # o o # $ ",
"O o o o o O $ 3 J K % O 0 H H H H H $ o $ = # * = 3 q 5 o $ = 3 3 3 2 * # o o o # H H = # + o $ > > ",
"o o o o o o o $ 3 a % o O - L K H = O o # = O o # H K 0 o O 3 H K K w 3 o o o o o # O = 9 = o O H q ",
"o o o o o o o o O # o o o o % * $ o o o O o o o o $ , * O o o * a s , o o o o o o o O = H H + o O = ",
"o o o o o o o $ * - = O o o o o o o = = o o o O # $ 2 2 $ o o o o O O O $ * o o o o o $ * * # # $ $ ",
"o   o o o * 3 H J J P 9 # @ > 3 * H H * + + # > - H H J H o o * > > > 3 H 3 $ o o o * = 3 9 = $ $ ; ",
"o o $ o o H H J U R Y 9 ; > H H H K - $ ; $ $ H J K K Y K O o * H J K P - o o o o * H H J K K = + $ ",
"o + $ o o # 2 H H 9 3 3 3 H 3 3 = 3 # $ ; $ O H H p L d - o O * 3 L L d * o + o o a P U Y T U * o O ",
"o o $ # o o $ ; 2 H q H H P K 4 > $ $ > ; 2 $ $ # O % * % * 0 J 5 * o o $ $ $ o $ q H J a a = o * = ",
"$ $ ; $ $ o o $ 3 J J J P T Y J 3 ; $ = 3 H H $ $ > 3 H H H H J 9 $ o o $ 3 = o o $ > ; > 3 3 H H H ",
"; 2 2 3 = o o O > w P I R E U 3 $ # $ 2 H 9 O + ; > H L U U P K 3 + o o $ 3 * o o # ; ; 4 K K K J H ",
"# $ O * O o O $ $ $ > 3 w a 3 o # $ # $ O o o o + + $ q a I U I 3 o O 3 O o o o o o $ $ 2 a U Y Y Y ",
"o o o o o $ H H H 3 > $ $ $ > = H H - $ o o o o O O O # ; > > 2 * $ 5 H * o o o o + + + o $ 2 7 h P ",
"o o + + o 9 J I L J H q * $ a U K J J H O o o O J K q % + # ; > w K K J 0 * $ # O $ 3 0 * O @ ; ; ; ",
"o + ; $ O q K E E R Y Y I , I E R Y U U % o o O L R Y L p 0 2 2 U R R R Y a < ; $ ; P Y P 6 * @ ; > ",
"# $ 2 ; O * K E _  ._ _ a * = m a.R L 3 = * O $ w E W a.E Y 7 > x E E E U w > ; ; ; J E E R T U w > ",
"o $ 3 H * o 3 M ( b 5 6 5 $ o i C 0 > q K L K - w a.( N r O $ # 3 Z W I 3 ; $ # ; ; 9 E W E T I w ; ",
"# O O * * o O 3 > > p T T f p 6 * < 9 I E  .| i , i : 6 p O o o * 8 7 < ; $ $ o + @ 9 C n 8 , < > ; ",
"$ + o o o O * $ > a R E E E E R 7 , Y { *.>.<.) , o = m 5 - = O o O # $ ; # o O @ o O * ; ; ; ; ; $ ",
"; $ + O 6 L K 3 7 R s.W  ... .m * = [ $.$.$.$.o.i $ * = - T T U 6 * O o $ @ 5 U c y t * ; ; ; ; ; ; ",
"+ # # 6 E E R K s { *.} ) } B , o O : 6 6 8 8 u j 7 $ # f E E E E T s % @ 2 m d...*.T , $ < ; ; < 3 ",
"o + , 9 I R E I 2 u i 4 > > @ o o o o # ; ; ; > U R 8 9 E W E W ! W E T a a ..3.:./ 6 s U P 2 ; > H ",
"* 5 H 3 > 9 a a > ; ; $ o + + + @ $ + @ ; ; o : &.d.x 7 ) =.4.6.6.=.C a 3 0 _ } v t s E E E a ; 3 U ",
"U L I J 2 ; < > q 3 > o + ; ; ; ; ; ; 3 3 ; o & / n * ; 7 l ' ] ' n 7 ; ; > 3 p L W ) a.a...x > q x ",
"R U x q < ; ; 3 H J w 9 7 x a q , 3 4 2 2 ; $ o O $ $ > 2 < < ; > ; ; ; ; ; * H E =.<.>.=.} s 4 ; > ",
"6 > $ $ ; ; ; 4 H J J U ! E Z a.T Y a > 4 H 9 4 3 4 4 P a H 3 2 4 > > 3 ; ; ; H c | 3.o.[ 8 4 3 ; < ",
"5 o o o @ 2 q 8 J J H H w e l B ( m < 4 H H w 3 3 9 H ) Z d 9 H H H 8 9 H 3 ; H H 7 l 7 > 8 i 2 ; ; ",
": o O o * q T R U J w w q 3 > > ; ; 3 J H g } } V i q x z g 3 w c m l 3 2 4 q , 3 ; , i B o.{ > ; ; ",
"D g K w Q K.h.f.s.! ~ L.L.G 1 2 A A Q J w ~ U.y.3.C S g.L.H.A 1 z F Q e 4 k H.g.A l | r.Y.Y.g.h ; g ",
"c.D.z.J.!.(./.W.x.A.Q.^.^.Q.j.;.T.E.I.;.P./.(./.I.j.I.~.^./.c.;.j.Q.F.j.K.R.(.(.!.x.A.G.^.G.~.z.-.v.",
"M.m.V.S.D.D.S.S.D.G.D.B.B.m.B.m.N.m.V.C.D.Z.D.Z.S.D.F.S.B.m.m.m.B.B.m.m.Z.D.S.S.Z.S.F.F.C.B.B.B.N.N.",
"i.l.l.l.k.l.l.k.S.D.Z.C.l.l.l.l.k.k.k.m.l.k.l.l.m.F.^.F.B.k.l.l.l.k.l.l.m.k.k.l.l.C.~.^.D.k.l.l.l.k.",
"e.w.M.e.7.u.k.n.m.k.k.m.l.k.b.i.8.i.p.M.0.0.i.i.m.m.m.m.m.k.k.i.u.w.i.M.e.9.8.n.b.m.m.m.m.k.k.k.i.8.",
"1.2.2.2.5.9.2.2.8.8.8.u.8.0.2.1.<.1.1.5.4.t.2.2.0.8.8.8.8.8.2.1.>.1.2.2.5.4.9.2.1.8.8.8.w.8.8.1.1.<.",
">.t.q.2.9.2.>.<.<.<.8.i.2.<.>.>.<.<.q.9.2.0.1.<.<.<.2.i.w.1.<.>.>.>.1.q.9.9.9.<.<.,.<.8.i.0.<.<.>.>.",
"4.<.9.7.1.:.:.:.:.1.0.8.7.<.>.>.<.<.1.0.7.<.:.:.:.>.2.8.8.1.<.<.>.>.<.9.9.1.,.:.:.:.<.0.8.0.<.<.<.<.",
":.%.%.O.O.%.%.%.%.+.@.@.@.:.:.>.:.#.%.%.O.O.%.%.%.%.@.@.+.@.,.:.:.:.O.%.+.O.O.%.%.%.%.%.+.+.:.:.:.>.",
"%.:.:.+.O.#.O.O.+.+.%.%.+.@.O.O.O.@.:.%.+.+.@.O.O.@.O.:.%.@.@.O.O.O.%.:.#.O.#.@.O.+.+.+.%.+.@.O.O.O.",
"3.%.O.` X.X.X.X.` ` O.O.@.@.O.O.O.@.O.O.X.X.X.` ` ` ` ` @.@.@.O.+.#.%.O.X.X.X.X.` ` X.X.O.@.%.+.+.O.",
"+.X.` ` X.X.X.X.` ` X.X.X.` ` ` X.X.X.X.X.X.X.X.X.X.` X.X.X.` ` X.X.X.X.X.X.X.X.X.X.X.X.X.X.` X.X.X.",
"+.X.X.X.X.X.X.X.X.X.X.X.X.` ` O.X.X.X.X.X.X.X.X.X.X.X.X.X.X.X.` X.X.X.X.X.X.X.X.X.X.X.X.X.X.X.X.X.X.",
"$.X.X.X.X.X.X.X.X.X.X.O.` ` ` ` X.X.X.X.X.O.` ` ` ` X.X.X.X.X.O.X.X.` ` ` ` X.X.X.X.X.X.X.O.` ` ` X.",
"/ ^ ^ ^ ^ ^ ^ ^ ^ ^ ^ ^ ^ ^ ^ ^ ^ ^ ^ ^ ^ ^ ^ ^ ^ ^ ^ ^ ^ ^ ^ ^ ^ / ^ ^ ^ ^ ^ ^ ^ ^ ^ ^ ^ ^ ^ ^ ^ ^ "
};
